# Blender 5.0.1
# www.blender.org
mtllib hollowCylinder.mtl
o Cylinder.001
v 0.706117 6.640358 -11.595239
v 0.706117 6.640357 -5.595237
v 1.291388 6.582713 -11.595239
v 1.291388 6.582714 -5.595237
v 1.854167 6.411996 -11.595239
v 1.854167 6.411997 -5.595237
v 2.372827 6.134767 -11.595239
v 2.372827 6.134767 -5.595237
v 2.827437 5.761678 -11.595238
v 2.827437 5.761679 -5.595237
v 3.200526 5.307069 -11.595238
v 3.200526 5.307069 -5.595237
v 3.477755 4.788408 -11.595238
v 3.477755 4.788409 -5.595237
v 3.648472 4.225629 -11.595238
v 3.648472 4.225630 -5.595237
v 3.706117 3.640358 -11.595238
v 3.706117 3.640359 -5.595237
v 3.648472 3.055087 -11.595238
v 3.648472 3.055088 -5.595237
v 3.477755 2.492308 -11.595238
v 3.477755 2.492309 -5.595237
v 3.200526 1.973647 -11.595238
v 3.200526 1.973648 -5.595237
v 2.827437 1.519038 -11.595238
v 2.827437 1.519038 -5.595237
v 2.372827 1.145949 -11.595238
v 2.372827 1.145950 -5.595237
v 1.854167 0.868720 -11.595238
v 1.854167 0.868720 -5.595237
v 1.291388 0.698002 -11.595238
v 1.291388 0.698003 -5.595237
v 0.706117 0.640358 -11.595238
v 0.706117 0.640359 -5.595237
v 0.120846 0.698002 -11.595238
v 0.120846 0.698003 -5.595237
v -0.441934 0.868720 -11.595238
v -0.441934 0.868720 -5.595237
v -0.960594 1.145949 -11.595238
v -0.960594 1.145950 -5.595237
v -1.415204 1.519038 -11.595238
v -1.415204 1.519038 -5.595237
v -1.788292 1.973647 -11.595238
v -1.788292 1.973648 -5.595237
v -2.065522 2.492308 -11.595238
v -2.065522 2.492309 -5.595237
v -2.236239 3.055087 -11.595238
v -2.236239 3.055088 -5.595237
v -2.293883 3.640358 -11.595238
v -2.293883 3.640359 -5.595237
v -2.236239 4.225629 -11.595238
v -2.236239 4.225630 -5.595237
v -2.065522 4.788408 -11.595238
v -2.065522 4.788409 -5.595237
v -1.788292 5.307069 -11.595238
v -1.788292 5.307069 -5.595237
v -1.415204 5.761678 -11.595238
v -1.415204 5.761679 -5.595237
v -0.960594 6.134767 -11.595239
v -0.960594 6.134767 -5.595237
v -0.441934 6.411996 -11.595239
v -0.441934 6.411997 -5.595237
v 0.120846 6.582713 -11.595239
v 0.120846 6.582714 -5.595237
v 1.174333 5.994243 -11.595238
v 0.706117 6.040358 -11.595239
v 0.706117 6.040359 -5.595237
v 1.174333 5.994243 -5.595237
v 1.624557 5.857669 -11.595238
v 1.624557 5.857668 -5.595237
v 2.039485 5.635885 -11.595238
v 2.039485 5.635886 -5.595237
v 2.403173 5.337414 -11.595238
v 2.403173 5.337415 -5.595237
v 2.701644 4.973727 -11.595238
v 2.701644 4.973728 -5.595237
v 2.923427 4.558798 -11.595238
v 2.923427 4.558799 -5.595237
v 3.060001 4.108575 -11.595238
v 3.060001 4.108576 -5.595237
v 3.106117 3.640358 -11.595238
v 3.106117 3.640359 -5.595237
v 3.060001 3.172141 -11.595238
v 3.060001 3.172142 -5.595237
v 2.923427 2.721917 -11.595238
v 2.923427 2.721918 -5.595237
v 2.701644 2.306989 -11.595238
v 2.701644 2.306990 -5.595237
v 2.403173 1.943302 -11.595238
v 2.403173 1.943303 -5.595237
v 2.039485 1.644831 -11.595238
v 2.039485 1.644831 -5.595237
v 1.624557 1.423047 -11.595238
v 1.624557 1.423048 -5.595237
v 1.174333 1.286473 -11.595238
v 1.174333 1.286474 -5.595237
v 0.706117 1.240358 -11.595238
v 0.706117 1.240358 -5.595237
v 0.237900 1.286473 -11.595238
v 0.237900 1.286474 -5.595237
v -0.212324 1.423047 -11.595238
v -0.212324 1.423048 -5.595237
v -0.627252 1.644831 -11.595238
v -0.627252 1.644831 -5.595237
v -0.990940 1.943302 -11.595238
v -0.990940 1.943303 -5.595237
v -1.289411 2.306989 -11.595238
v -1.289411 2.306990 -5.595237
v -1.511194 2.721917 -11.595238
v -1.511194 2.721918 -5.595237
v -1.647768 3.172141 -11.595238
v -1.647768 3.172142 -5.595237
v -1.693883 3.640358 -11.595238
v -1.693883 3.640359 -5.595237
v -1.647768 4.108575 -11.595238
v -1.647768 4.108576 -5.595237
v -1.511194 4.558798 -11.595238
v -1.511194 4.558799 -5.595237
v -1.289411 4.973727 -11.595238
v -1.289411 4.973728 -5.595237
v -0.990940 5.337414 -11.595238
v -0.990940 5.337415 -5.595237
v -0.627252 5.635885 -11.595238
v -0.627252 5.635886 -5.595237
v -0.212324 5.857669 -11.595238
v -0.212324 5.857668 -5.595237
v 0.237900 5.994243 -11.595238
v 0.237900 5.994243 -5.595237
vn -0.0980 -0.9952 -0.0000
vn -0.2903 -0.9569 -0.0000
vn -0.4714 -0.8819 -0.0000
vn -0.6344 -0.7730 -0.0000
vn -0.7730 -0.6344 -0.0000
vn -0.8819 -0.4714 -0.0000
vn -0.9569 -0.2903 -0.0000
vn -0.9952 -0.0980 -0.0000
vn -0.9952 0.0980 -0.0000
vn -0.9569 0.2903 -0.0000
vn -0.8819 0.4714 -0.0000
vn -0.7730 0.6344 -0.0000
vn -0.6344 0.7730 -0.0000
vn -0.4714 0.8819 -0.0000
vn -0.2903 0.9569 -0.0000
vn -0.0980 0.9952 -0.0000
vn 0.0980 0.9952 -0.0000
vn 0.2903 0.9569 -0.0000
vn 0.4714 0.8819 -0.0000
vn 0.6344 0.7730 -0.0000
vn 0.7730 0.6344 -0.0000
vn 0.8819 0.4714 -0.0000
vn 0.9569 0.2903 -0.0000
vn 0.9952 0.0980 -0.0000
vn 0.9952 -0.0980 -0.0000
vn 0.9569 -0.2903 -0.0000
vn 0.8819 -0.4714 -0.0000
vn 0.7730 -0.6344 -0.0000
vn 0.6344 -0.7730 -0.0000
vn 0.4714 -0.8819 -0.0000
vn 0.2903 -0.9569 -0.0000
vn 0.0980 -0.9952 -0.0000
vn -0.0000 -0.0000 -1.0000
vn -0.0000 -0.0000 1.0000
vt 1.000000 0.000000
vt 0.968750 0.000000
vt 0.968750 1.000000
vt 1.000000 1.000000
vt 0.937500 0.000000
vt 0.937500 1.000000
vt 0.906250 0.000000
vt 0.906250 1.000000
vt 0.875000 0.000000
vt 0.875000 1.000000
vt 0.843750 0.000000
vt 0.843750 1.000000
vt 0.812500 0.000000
vt 0.812500 1.000000
vt 0.781250 0.000000
vt 0.781250 1.000000
vt 0.750000 0.000000
vt 0.750000 1.000000
vt 0.718750 0.000000
vt 0.718750 1.000000
vt 0.687500 0.000000
vt 0.687500 1.000000
vt 0.656250 0.000000
vt 0.656250 1.000000
vt 0.625000 0.000000
vt 0.625000 1.000000
vt 0.593750 0.000000
vt 0.593750 1.000000
vt 0.562500 0.000000
vt 0.562500 1.000000
vt 0.531250 0.000000
vt 0.531250 1.000000
vt 0.500000 0.000000
vt 0.500000 1.000000
vt 0.468750 0.000000
vt 0.468750 1.000000
vt 0.437500 0.000000
vt 0.437500 1.000000
vt 0.406250 0.000000
vt 0.406250 1.000000
vt 0.375000 0.000000
vt 0.375000 1.000000
vt 0.343750 0.000000
vt 0.343750 1.000000
vt 0.312500 0.000000
vt 0.312500 1.000000
vt 0.281250 0.000000
vt 0.281250 1.000000
vt 0.250000 0.000000
vt 0.250000 1.000000
vt 0.218750 0.000000
vt 0.218750 1.000000
vt 0.187500 0.000000
vt 0.187500 1.000000
vt 0.156250 0.000000
vt 0.156250 1.000000
vt 0.125000 0.000000
vt 0.125000 1.000000
vt 0.093750 0.000000
vt 0.093750 1.000000
vt 0.062500 0.000000
vt 0.062500 1.000000
vt 0.031250 0.000000
vt 0.031250 1.000000
vt 0.000000 0.000000
vt 0.000000 1.000000
s 1
f 1/1/1 3/2/1 4/3/1 2/4/1
f 3/2/2 5/5/2 6/6/2 4/3/2
f 5/5/3 7/7/3 8/8/3 6/6/3
f 7/7/4 9/9/4 10/10/4 8/8/4
f 9/9/5 11/11/5 12/12/5 10/10/5
f 11/11/6 13/13/6 14/14/6 12/12/6
f 13/13/7 15/15/7 16/16/7 14/14/7
f 15/15/8 17/17/8 18/18/8 16/16/8
f 17/17/9 19/19/9 20/20/9 18/18/9
f 19/19/10 21/21/10 22/22/10 20/20/10
f 21/21/11 23/23/11 24/24/11 22/22/11
f 23/23/12 25/25/12 26/26/12 24/24/12
f 25/25/13 27/27/13 28/28/13 26/26/13
f 27/27/14 29/29/14 30/30/14 28/28/14
f 29/29/15 31/31/15 32/32/15 30/30/15
f 31/31/16 33/33/16 34/34/16 32/32/16
f 33/33/17 35/35/17 36/36/17 34/34/17
f 35/35/18 37/37/18 38/38/18 36/36/18
f 37/37/19 39/39/19 40/40/19 38/38/19
f 39/39/20 41/41/20 42/42/20 40/40/20
f 41/41/21 43/43/21 44/44/21 42/42/21
f 43/43/22 45/45/22 46/46/22 44/44/22
f 45/45/23 47/47/23 48/48/23 46/46/23
f 47/47/24 49/49/24 50/50/24 48/48/24
f 49/49/25 51/51/25 52/52/25 50/50/25
f 51/51/26 53/53/26 54/54/26 52/52/26
f 53/53/27 55/55/27 56/56/27 54/54/27
f 55/55/28 57/57/28 58/58/28 56/56/28
f 57/57/29 59/59/29 60/60/29 58/58/29
f 59/59/30 61/61/30 62/62/30 60/60/30
f 61/61/31 63/63/31 64/64/31 62/62/31
f 63/63/32 1/65/32 2/66/32 64/64/32
f 66/1/17 67/4/17 68/3/17 65/2/17
f 65/2/18 68/3/18 70/6/18 69/5/18
f 69/5/19 70/6/19 72/8/19 71/7/19
f 71/7/20 72/8/20 74/10/20 73/9/20
f 73/9/21 74/10/21 76/12/21 75/11/21
f 75/11/22 76/12/22 78/14/22 77/13/22
f 77/13/23 78/14/23 80/16/23 79/15/23
f 79/15/24 80/16/24 82/18/24 81/17/24
f 81/17/25 82/18/25 84/20/25 83/19/25
f 83/19/26 84/20/26 86/22/26 85/21/26
f 85/21/27 86/22/27 88/24/27 87/23/27
f 87/23/28 88/24/28 90/26/28 89/25/28
f 89/25/29 90/26/29 92/28/29 91/27/29
f 91/27/30 92/28/30 94/30/30 93/29/30
f 93/29/31 94/30/31 96/32/31 95/31/31
f 95/31/32 96/32/32 98/34/32 97/33/32
f 97/33/1 98/34/1 100/36/1 99/35/1
f 99/35/2 100/36/2 102/38/2 101/37/2
f 101/37/3 102/38/3 104/40/3 103/39/3
f 103/39/4 104/40/4 106/42/4 105/41/4
f 105/41/5 106/42/5 108/44/5 107/43/5
f 107/43/6 108/44/6 110/46/6 109/45/6
f 109/45/7 110/46/7 112/48/7 111/47/7
f 111/47/8 112/48/8 114/50/8 113/49/8
f 113/49/9 114/50/9 116/52/9 115/51/9
f 115/51/10 116/52/10 118/54/10 117/53/10
f 117/53/11 118/54/11 120/56/11 119/55/11
f 119/55/12 120/56/12 122/58/12 121/57/12
f 121/57/13 122/58/13 124/60/13 123/59/13
f 123/59/14 124/60/14 126/62/14 125/61/14
f 125/61/15 126/62/15 128/64/15 127/63/15
f 127/63/16 128/64/16 67/66/16 66/65/16
f 54/54/33 56/56/33 120/56/33 118/54/33
f 21/21/34 19/19/34 83/19/34 85/21/34
f 2/4/33 4/3/33 68/3/33 67/4/33
f 39/39/34 37/37/34 101/37/34 103/39/34
f 20/20/33 22/22/33 86/22/33 84/20/33
f 57/57/34 55/55/34 119/55/34 121/57/34
f 38/38/33 40/40/33 104/40/33 102/38/33
f 5/5/34 3/2/34 65/2/34 69/5/34
f 56/56/33 58/58/33 122/58/33 120/56/33
f 23/23/34 21/21/34 85/21/34 87/23/34
f 4/3/33 6/6/33 70/6/33 68/3/33
f 41/41/34 39/39/34 103/39/34 105/41/34
f 22/22/33 24/24/33 88/24/33 86/22/33
f 59/59/34 57/57/34 121/57/34 123/59/34
f 40/40/33 42/42/33 106/42/33 104/40/33
f 7/7/34 5/5/34 69/5/34 71/7/34
f 58/58/33 60/60/33 124/60/33 122/58/33
f 25/25/34 23/23/34 87/23/34 89/25/34
f 6/6/33 8/8/33 72/8/33 70/6/33
f 43/43/34 41/41/34 105/41/34 107/43/34
f 24/24/33 26/26/33 90/26/33 88/24/33
f 61/61/34 59/59/34 123/59/34 125/61/34
f 42/42/33 44/44/33 108/44/33 106/42/33
f 9/9/34 7/7/34 71/7/34 73/9/34
f 60/60/33 62/62/33 126/62/33 124/60/33
f 27/27/34 25/25/34 89/25/34 91/27/34
f 8/8/33 10/10/33 74/10/33 72/8/33
f 45/45/34 43/43/34 107/43/34 109/45/34
f 26/26/33 28/28/33 92/28/33 90/26/33
f 63/63/34 61/61/34 125/61/34 127/63/34
f 44/44/33 46/46/33 110/46/33 108/44/33
f 11/11/34 9/9/34 73/9/34 75/11/34
f 62/62/33 64/64/33 128/64/33 126/62/33
f 29/29/34 27/27/34 91/27/34 93/29/34
f 10/10/33 12/12/33 76/12/33 74/10/33
f 47/47/34 45/45/34 109/45/34 111/47/34
f 28/28/33 30/30/33 94/30/33 92/28/33
f 1/65/34 63/63/34 127/63/34 66/65/34
f 46/46/33 48/48/33 112/48/33 110/46/33
f 13/13/34 11/11/34 75/11/34 77/13/34
f 64/64/33 2/66/33 67/66/33 128/64/33
f 31/31/34 29/29/34 93/29/34 95/31/34
f 12/12/33 14/14/33 78/14/33 76/12/33
f 49/49/34 47/47/34 111/47/34 113/49/34
f 30/30/33 32/32/33 96/32/33 94/30/33
f 48/48/33 50/50/33 114/50/33 112/48/33
f 15/15/34 13/13/34 77/13/34 79/15/34
f 33/33/34 31/31/34 95/31/34 97/33/34
f 14/14/33 16/16/33 80/16/33 78/14/33
f 51/51/34 49/49/34 113/49/34 115/51/34
f 32/32/33 34/34/33 98/34/33 96/32/33
f 50/50/33 52/52/33 116/52/33 114/50/33
f 17/17/34 15/15/34 79/15/34 81/17/34
f 35/35/34 33/33/34 97/33/34 99/35/34
f 16/16/33 18/18/33 82/18/33 80/16/33
f 53/53/34 51/51/34 115/51/34 117/53/34
f 34/34/33 36/36/33 100/36/33 98/34/33
f 52/52/33 54/54/33 118/54/33 116/52/33
f 19/19/34 17/17/34 81/17/34 83/19/34
f 37/37/34 35/35/34 99/35/34 101/37/34
f 18/18/33 20/20/33 84/20/33 82/18/33
f 3/2/34 1/1/34 66/1/34 65/2/34
f 55/55/34 53/53/34 117/53/34 119/55/34
f 36/36/33 38/38/33 102/38/33 100/36/33
